<svg width="32" height="32" viewBox="0 0 32 32" fill="none" xmlns="http://www.w3.org/2000/svg">
<path d="M8.62556 13.9539C10.4656 17.57 13.43 20.5344 17.0461 22.3744L19.8572 19.5633C20.215 19.2056 20.7133 19.1033 21.1606 19.2439C22.5917 19.7167 24.125 19.9722 25.7222 19.9722C26.0611 19.9722 26.3861 20.1068 26.6257 20.3465C26.8654 20.5861 27 20.9111 27 21.25V25.7222C27 26.0611 26.8654 26.3861 26.6257 26.6257C26.3861 26.8654 26.0611 27 25.7222 27C19.9611 27 14.436 24.7114 10.3623 20.6377C6.28858 16.564 4 11.0389 4 5.27778C4 4.93889 4.13462 4.61388 4.37425 4.37425C4.61388 4.13462 4.93889 4 5.27778 4H9.75C10.0889 4 10.4139 4.13462 10.6535 4.37425C10.8932 4.61388 11.0278 4.93889 11.0278 5.27778C11.0278 6.875 11.2833 8.40833 11.7561 9.83944C11.8967 10.2867 11.7944 10.785 11.4367 11.1428L8.62556 13.9539Z" fill="#141414"/>
</svg>
